<svg width="30" height="30" viewBox="0 0 30 30" fill="none" xmlns="http://www.w3.org/2000/svg">
	<circle cx="15" cy="15" r="15" fill="#0A66C2"/>
	<path d="M9.6 12.1C10.5941 12.1 11.4 11.2941 11.4 10.3C11.4 9.30589 10.5941 8.5 9.6 8.5C8.60589 8.5 7.8 9.30589 7.8 10.3C7.8 11.2941 8.60589 12.1 9.6 12.1Z" fill="white"/>
	<path d="M8.2 13.4H11V21.5H8.2V13.4Z" fill="white"/>
	<path d="M12.8 13.4H15.5V14.5H15.5C15.9 13.8 16.8 13.3 17.9 13.3C20.2 13.3 21.5 14.8 21.5 17.3V21.5H18.7V17.8C18.7 16.7 18.3 15.9 17.2 15.9C16.3 15.9 15.8 16.5 15.6 17.1C15.5 17.3 15.5 17.6 15.5 17.9V21.5H12.8V13.4Z" fill="white"/>
</svg>
