<svg viewBox="0 0 128 128" xmlns="http://www.w3.org/2000/svg"><path fill="#336791" d="M64.13 7.36C33.15 7.36 8 32.05 8 63.2s25.15 55.84 56.13 55.84 56.13-25.13 56.13-55.84S95.11 7.36 64.13 7.36zm27.11 59.65c0-2.24-1.38-4.16-3.42-4.96 2.04-.8 3.42-2.72 3.42-4.96 0-3.52-2.88-6.4-6.4-6.4h-16.64v39.04h19.36c3.52 0 6.4-2.88 6.4-6.4 0-2.24-1.38-4.16-3.42-4.96 2.04-.8 3.42-2.88 3.42-5.12v-11.2zm-13.92-9.28h8.64c1.44 0 2.56 1.12 2.56 2.56s-1.12 2.56-2.56 2.56h-8.64v-5.12zm0 15.68v-5.12h8.64c1.44 0 2.56 1.12 2.56 2.56s-1.12 2.56-2.56 2.56h-8.64z"/></svg>