<svg viewBox="0 0 128 128" xmlns="http://www.w3.org/2000/svg"><defs><linearGradient id="tailGrad" x1="0%" y1="0%" x2="100%" y2="100%"><stop offset="0%" stop-color="#06B6D4"/><stop offset="100%" stop-color="#0891B2"/></linearGradient></defs><path fill="url(#tailGrad)" d="M64 10c-18 0-29 9-33 27 7-10 15-13 24-11 5 1 9 5 13 10 6 7 14 16 30 16 18 0 29-9 33-27-7 10-15 13-24 11-5-1-9-5-13-10-6-7-14-16-30-16zm-33 56c-18 0-29 9-33 27 7-10 15-13 24-11 5 1 9 5 13 10 6 7 14 16 30 16 18 0 29-9 33-27-7 10-15 13-24 11-5-1-9-5-13-10-6-7-14-16-30-16z"/></svg>